<svg xmlns="http://www.w3.org/2000/svg" width="960" height="960" viewBox="0 0 960 960"><path fill="#333" d="M248 534.787c0 8.256.081 17.228-.537 26.914-.62 9.697-2.184 18.67-5.067 26.915-2.892 8.247-7.323 15.155-13.512 20.723-6.186 5.57-14.8 8.35-25.935 8.35-10.729 0-20.297-3.706-28.745-11.139-8.458-7.42-13.288-16.482-14.526-27.217l-88.459 21.65c7.007 35.062 22.477 60.849 46.401 77.332 23.915 16.493 53.202 24.751 87.853 24.751 29.693 0 53.717-4.441 72.073-13.303 18.347-8.861 32.479-20.621 42.376-35.264 8.588-12.699 14.373-27.032 18.15-42.991L248 309.146v225.641zM345 254h-4.182L345 271.87z"/><path fill="#2B2B2B" d="M345 545.31V271.87L340.818 254H248v55.146l90.072 302.362c.576-2.438 1.156-4.91 1.621-7.425 3.499-18.969 5.307-38.566 5.307-58.773z"/><path fill="#333" d="M247.973 253.912h108.425l72.067 289.554h1.279l94.389-289.554h92.48l93.754 297.213h1.276l75.897-297.213h100.768l-132.02 451.555h-88.654L568.14 392.949h-1.274l-99.493 312.518h-85.465L247.973 253.912z"/><path fill="#2B2B2B" d="M566.865 392.949l-42.732-139.037 36.24 159.433zm189.424 312.518l-38.34-180.91-7.582 26.568 45.922 154.342z"/><path fill="#333" d="M338.072 611.509l-90.099-357.597L248 338l89.199 277.012"/></svg>